<?xml version="1.0" encoding="UTF-8"?>
<svg id="Laag_1" data-name="Laag 1" xmlns="http://www.w3.org/2000/svg" viewBox="0 0 391.62 268.51">
  <defs>
    <style>
      .cls-1 {
        fill: #f7f4d6;
      }
    </style>
  </defs>
  <g id="_Radiale_herhaling_" data-name="&amp;lt;Radiale herhaling&amp;gt;">
    <path class="cls-1" d="M391.62,195.54c0,2.68-2.17,4.85-4.84,4.85l-139.61.19c-2.68,0-4.85-2.17-4.85-4.85-.02-1.34.53-2.56,1.41-3.43.89-.89,2.09-1.42,3.43-1.42l17.89-.03c8.83-.01,15.12-8.6,12.46-17.03-.47-1.5-.99-2.98-1.54-4.44-1.15-3.04-2.46-6-3.95-8.86-3.77-7.34-8.57-14.07-14.23-19.99-2.23-2.35-4.59-4.56-7.08-6.65-5.92-4.93-12.52-9.09-19.62-12.29-2.94-1.34-5.97-2.51-9.06-3.49-6.83-2.2-14.02-3.56-21.46-3.95-1.57-.1-3.15-.15-4.74-.15-1.67,0-3.33.05-4.97.16-8.86.49-17.37,2.35-25.31,5.35-3.06,1.15-6.02,2.46-8.88,3.93-5.71,2.94-11.03,6.5-15.9,10.59-2.47,2.07-4.84,4.29-7.07,6.63-6.57,6.92-11.98,14.93-15.96,23.73-1.33,2.93-2.49,5.95-3.48,9.06-.07.23-.15.46-.22.69-2.64,8.38,3.75,16.9,12.53,16.89l17.9-.03c2.67,0,4.85,2.17,4.85,4.85,0,1.34-.53,2.56-1.42,3.43-.87.89-2.09,1.42-3.43,1.42l-139.6.19c-2.68,0-4.85-2.17-4.87-4.85,0-2.68,2.17-4.85,4.85-4.85l84.25-.11c6.2,0,11.55-4.36,12.78-10.44.01-.07.03-.14.04-.21,1.28-6.27-2.13-12.54-8.09-14.84l-47.25-18.2c-2.49-.97-3.74-3.77-2.78-6.28.97-2.49,3.77-3.74,6.28-2.78l47.24,18.2c5.93,2.28,12.68-.01,15.91-5.49,1.83-3.1,3.82-6.09,5.98-8.95,3.91-5.2,3.39-12.49-1.22-17.09l-60.8-60.63c-1.89-1.89-1.89-4.97,0-6.86,1.89-1.89,4.97-1.91,6.86-.02l61.43,61.27c4.41,4.4,11.34,5.11,16.49,1.61.38-.26.76-.51,1.14-.76,5.31-3.5,7.28-10.35,4.69-16.17l-20.55-46.27c-1.08-2.44.02-5.3,2.47-6.4,2.44-1.08,5.3.02,6.4,2.47l20.53,46.25c2.6,5.87,9.07,8.92,15.28,7.33,2.61-.67,5.25-1.23,7.94-1.68,6.32-1.06,10.97-6.5,10.96-12.91l-.13-87.39C190.71,2.17,192.87,0,195.56,0c2.67-.02,4.85,2.17,4.85,4.84l.13,87.4c0,6.37,4.61,11.83,10.91,12.86,1.22.2,2.44.43,3.65.67,6.25,1.28,12.51-2.14,14.8-8.1l18.18-47.22c.95-2.51,3.77-3.75,6.28-2.8,2.49.97,3.74,3.78,2.78,6.28l-18.19,47.24c-2.3,5.97.08,12.71,5.59,15.97,1.65.97,3.27,2,4.85,3.07,5.2,3.51,12.15,2.85,16.58-1.59l61.28-61.45c1.89-1.89,4.95-1.89,6.86,0,1.89,1.89,1.89,4.97,0,6.86l-60.63,60.8c-4.61,4.62-5.08,11.92-1.15,17.13,1.22,1.61,2.39,3.27,3.5,4.96,3.52,5.33,10.37,7.34,16.2,4.75l46.27-20.55c2.44-1.1,5.31.02,6.4,2.46,1.08,2.46-.03,5.32-2.47,6.4l-46.27,20.55c-5.82,2.58-8.95,8.99-7.36,15.15.41,1.59.78,3.2,1.11,4.83,1.23,6.04,6.63,10.32,12.79,10.31l84.27-.11c2.67,0,4.85,2.17,4.85,4.85Z"/>
  </g>
  <path class="cls-1" d="M226.2,200.91h-60.78c0-16.78,13.62-30.38,30.4-30.38s30.38,13.59,30.38,30.38Z"/>
  <g>
    <path class="cls-1" d="M1.04,262.76l6.07-13.73c5.27,3.11,12.29,5.11,18.44,5.11,5.35,0,7.26-1.12,7.26-3.03,0-7.03-30.9-1.36-30.9-22.19,0-10.38,8.7-18.84,26.03-18.84,7.5,0,15.25,1.6,21.08,4.87l-5.67,13.65c-5.51-2.79-10.7-4.15-15.57-4.15-5.51,0-7.26,1.6-7.26,3.51,0,6.71,30.9,1.12,30.9,21.71,0,10.22-8.7,18.84-26.03,18.84-9.34,0-18.76-2.32-24.35-5.75Z"/>
    <path class="cls-1" d="M103.47,253.02v14.21h-46.46v-55.88h45.43v14.21h-26.9v6.55h23.63v13.57h-23.63v7.34h27.94Z"/>
    <path class="cls-1" d="M157.2,253.02v14.21h-46.46v-55.88h45.43v14.21h-26.9v6.55h23.63v13.57h-23.63v7.34h27.94Z"/>
    <path class="cls-1" d="M160.96,262.76l6.07-13.73c5.27,3.11,12.29,5.11,18.44,5.11,5.35,0,7.26-1.12,7.26-3.03,0-7.03-30.9-1.36-30.9-22.19,0-10.38,8.7-18.84,26.03-18.84,7.5,0,15.25,1.6,21.08,4.87l-5.67,13.65c-5.51-2.79-10.7-4.15-15.57-4.15-5.51,0-7.26,1.6-7.26,3.51,0,6.71,30.9,1.12,30.9,21.71,0,10.22-8.7,18.84-26.03,18.84-9.34,0-18.76-2.32-24.35-5.75Z"/>
    <path class="cls-1" d="M216.45,242.08v-30.74h18.84v30.18c0,8.54,3.27,11.74,8.54,11.74s8.54-3.19,8.54-11.74v-30.18h18.52v30.74c0,16.76-10.06,26.42-27.22,26.42s-27.22-9.66-27.22-26.42Z"/>
    <path class="cls-1" d="M334.61,211.35v55.88h-15.49l-21.24-25.39v25.39h-18.36v-55.88h15.49l21.24,25.39v-25.39h18.36Z"/>
    <path class="cls-1" d="M340.2,262.76l6.07-13.73c5.27,3.11,12.29,5.11,18.44,5.11,5.35,0,7.26-1.12,7.26-3.03,0-7.03-30.9-1.36-30.9-22.19,0-10.38,8.7-18.84,26.03-18.84,7.5,0,15.25,1.6,21.08,4.87l-5.67,13.65c-5.51-2.79-10.7-4.15-15.57-4.15-5.51,0-7.26,1.6-7.26,3.51,0,6.71,30.9,1.12,30.9,21.71,0,10.22-8.7,18.84-26.03,18.84-9.34,0-18.76-2.32-24.35-5.75Z"/>
  </g>
</svg>